<svg fill="none" height="80" viewBox="0 0 80 80" width="80" xmlns="http://www.w3.org/2000/svg" xmlns:xlink="http://www.w3.org/1999/xlink"><radialGradient id="a" cx="34.0039" cy="27.649" gradientUnits="userSpaceOnUse" r="36.7656"><stop offset="0" stop-color="#ffe030"/><stop offset="1" stop-color="#ffb92e"/></radialGradient><radialGradient id="b" cx="34.0039" cy="27.649" gradientUnits="userSpaceOnUse" r="28.9251"><stop offset="0" stop-color="#ffea5f"/><stop offset="1" stop-color="#ffbc47" stop-opacity="0"/></radialGradient><linearGradient id="c"><stop offset=".00132565" stop-color="#3c2200"/><stop offset="1" stop-color="#7a4400"/></linearGradient><linearGradient id="d" gradientUnits="userSpaceOnUse" x1="26.8688" x2="26.8688" xlink:href="#c" y1="26.252" y2="23.0407"/><linearGradient id="e" gradientUnits="userSpaceOnUse" x1="53.1313" x2="53.1313" xlink:href="#c" y1="26.252" y2="23.0407"/><linearGradient id="f"><stop offset="0" stop-color="#7a4400" stop-opacity=".5"/><stop offset=".5833" stop-color="#894d00" stop-opacity=".2069"/><stop offset=".995" stop-color="#975500" stop-opacity="0"/></linearGradient><radialGradient id="g" cx="0" cy="0" gradientTransform="matrix(-30.7625 0 0 -30.7625 13.3475 33.7982)" gradientUnits="userSpaceOnUse" r="1" xlink:href="#f"/><radialGradient id="h" cx="66.6528" cy="33.7982" gradientUnits="userSpaceOnUse" r="30.7625" xlink:href="#f"/><linearGradient id="i"><stop offset=".00132565" stop-color="#7a4400"/><stop offset="1" stop-color="#643800"/></linearGradient><radialGradient id="j" cx="0" cy="0" gradientTransform="matrix(5.71405117 .58726352 -.28333498 2.75683832 52.7407 35.8197)" gradientUnits="userSpaceOnUse" r="1" xlink:href="#i"/><linearGradient id="k"><stop offset=".00132565" stop-color="#3c2200"/><stop offset="1" stop-color="#512d00"/></linearGradient><linearGradient id="l" gradientUnits="userSpaceOnUse" x1="53.2141" x2="52.8558" xlink:href="#k" y1="31.1412" y2="34.8351"/><radialGradient id="m" cx="0" cy="0" gradientTransform="matrix(-5.71404112 .58726349 -.28333546 -2.75683827 27.3022 35.819)" gradientUnits="userSpaceOnUse" r="1" xlink:href="#i"/><linearGradient id="n" gradientUnits="userSpaceOnUse" x1="26.8086" x2="27.1669" xlink:href="#k" y1="31.1434" y2="34.8373"/><linearGradient id="o" gradientUnits="userSpaceOnUse" x1="40.0002" x2="40.0002" xlink:href="#k" y1="52.5923" y2="57.142"/><linearGradient id="p"><stop offset="0" stop-color="#8800c7"/><stop offset="1" stop-color="#7000a3" stop-opacity="0"/></linearGradient><linearGradient id="q" gradientUnits="userSpaceOnUse" x1="25.4769" x2="25.4769" xlink:href="#p" y1="61.7836" y2="33.5917"/><linearGradient id="r" gradientUnits="userSpaceOnUse" x1="54.4411" x2="54.4411" xlink:href="#p" y1="61.7836" y2="33.5917"/><linearGradient id="s" gradientUnits="userSpaceOnUse" x1="39.959" x2="39.959" y1="37.0063" y2="15.8689"><stop offset="0" stop-color="#242424"/><stop offset="1" stop-color="#8ea5a8"/></linearGradient><linearGradient id="t"><stop offset="0"/><stop offset="1" stop-opacity=".5"/></linearGradient><linearGradient id="u" gradientUnits="userSpaceOnUse" x1="14.8432" x2="36.1977" xlink:href="#t" y1="18.0924" y2="53.0362"/><linearGradient id="v"><stop offset="0"/><stop offset="1" stop-color="#8ea5a8"/></linearGradient><linearGradient id="w" gradientUnits="userSpaceOnUse" x1="25.3883" x2="25.3883" xlink:href="#v" y1="36.4956" y2="52.6509"/><radialGradient id="x" cx="0" cy="0" gradientTransform="matrix(3.59946 0 0 2.19967 39.9231 31.5428)" gradientUnits="userSpaceOnUse" r="1"><stop offset=".0158651" stop-color="#8ea5a8" stop-opacity=".25"/><stop offset="1" stop-color="#8ea5a8" stop-opacity="0"/></radialGradient><linearGradient id="y"><stop offset="0" stop-color="#fff"/><stop offset="1" stop-color="#ffbf00"/></linearGradient><linearGradient id="z" gradientUnits="userSpaceOnUse" x1="14.796" x2="11.0579" xlink:href="#y" y1="28.6281" y2="28.6281"/><linearGradient id="A" gradientUnits="userSpaceOnUse" x1="43.1706" x2="67.2838" xlink:href="#t" y1="17.1471" y2="54.0322"/><linearGradient id="B" gradientUnits="userSpaceOnUse" x1="54.5298" x2="54.5298" xlink:href="#v" y1="36.4956" y2="52.6509"/><linearGradient id="C" gradientUnits="userSpaceOnUse" x1="65.1221" x2="68.8603" xlink:href="#y" y1="28.6281" y2="28.6281"/><linearGradient id="D"><stop offset="0" stop-color="#fff" stop-opacity=".24"/><stop offset="1" stop-color="#fff" stop-opacity="0"/></linearGradient><radialGradient id="E" cx="0" cy="0" gradientTransform="matrix(-10.5203 0 0 -3.6627 54.7762 32.9444)" gradientUnits="userSpaceOnUse" r="1" xlink:href="#D"/><radialGradient id="F" cx="0" cy="0" gradientTransform="matrix(10.0886 0 0 3.51211 25.7705 33.4542)" gradientUnits="userSpaceOnUse" r="1" xlink:href="#D"/><linearGradient id="G"><stop offset=".9647" stop-color="#8ea5a8" stop-opacity="0"/><stop offset="1" stop-color="#8ea5a8"/></linearGradient><radialGradient id="H" cx="0" cy="0" gradientTransform="matrix(60.1324 0 0 35.7548 21.9563 61.2459)" gradientUnits="userSpaceOnUse" r="1" xlink:href="#G"/><radialGradient id="I" cx="0" cy="0" gradientTransform="matrix(-60.1324 0 0 -35.7547 58.1241 61.246)" gradientUnits="userSpaceOnUse" r="1" xlink:href="#G"/><path d="m40.0001 70.4762c16.8315 0 30.4762-13.6447 30.4762-30.4762s-13.6447-30.4762-30.4762-30.4762-30.47617 13.6447-30.47617 30.4762 13.64467 30.4762 30.47617 30.4762z" fill="url(#a)"/><path d="m40.0001 70.4762c16.8315 0 30.4762-13.6447 30.4762-30.4762s-13.6447-30.4762-30.4762-30.4762-30.47617 13.6447-30.47617 30.4762 13.64467 30.4762 30.47617 30.4762z" fill="url(#b)" opacity=".5"/><path d="m33.2953 24.2093c0-1.219-1.3143-1.9809-3.6-1.9809-1.9238 0-6.1714 1.0667-9.0857 4.819-.5333.6858.2857 1.0667.819.6286 1.7905-1.5238 6.6096-3.4857 10.3619-3.0667 1.5048.1524 1.5048-.4 1.5048-.4z" fill="url(#d)"/><path d="m46.7048 24.2093c0-1.219 1.3143-1.9809 3.6-1.9809 1.9238 0 6.1715 1.0667 9.0858 4.819.5333.6858-.2858 1.0667-.8191.6286-1.7905-1.5238-6.6095-3.4857-10.3619-3.0667-1.5048.1524-1.5048-.4-1.5048-.4z" fill="url(#e)"/><path d="m15.2954 46.0382s-2.6476-2.9905-3.5047-11.3334c-.0572-.6285-.8953-1.1809-1.5048-1.4857.3619-1.5809.8381-3.1047 1.4286-4.5904.6476-.1143 1.5619-.2667 2.8-.4 4.5333-.5143 12-.5334 15.4666.5142 4.8191 1.4477 6.5524 3.4667 9.4857 3.4667v1.581c-3.4285 0-.5714 5.9238-5.2952 11.1809-3.7714 4.2095-16.4952 4.2857-18.8762 1.0667z" fill="url(#g)" opacity=".5"/><path d="m64.7049 46.0382s2.6476-2.9905 3.5048-11.3334c.0571-.6285.8952-1.1809 1.5047-1.4857-.3619-1.5809-.8381-3.1047-1.4286-4.5904-.6476-.1143-1.5619-.2667-2.8-.4-4.5333-.5143-12-.5334-15.4666.5142-4.8191 1.4477-6.5524 3.4667-9.4858 3.4667v1.581c3.4286 0 .5715 5.9238 5.2953 11.1809 3.7714 4.2095 16.4952 4.2857 18.8762 1.0667z" fill="url(#h)" opacity=".5"/><path d="m53.0288 32.8191s5.3143.5333 6.8 4.5524c.0952.2476.1524.5142.1333.7809 0 .5333-.4952 1.1048-1.4476.5905-5.8286-3.2191-9.2-1.6953-11.7143-.6476-.9714.419-1.8476-.5715-1.5428-1.4477.0761-.2476.1523-.5142.2857-.7428 2.1714-3.6572 7.4857-3.0857 7.4857-3.0857z" fill="url(#j)"/><path d="m52.9145 34.0762s4.3238.4381 7.0285 3.7524c-.019-.1524-.0571-.3048-.1143-.4571-1.4857-4.0191-6.8-4.5524-6.8-4.5524s-5.3143-.5715-7.4857 3.0857c-.0762.1333-.1524.2857-.1905.4381 3.2191-2.7238 7.562-2.2667 7.562-2.2667z" fill="url(#l)"/><path d="m26.9716 32.8191s-5.3142.5333-6.7999 4.5524c-.0953.2476-.1524.5142-.1334.7809 0 .5333.4953 1.1048 1.4476.5905 5.8286-3.2191 9.2-1.6953 11.7143-.6476.9714.419 1.8476-.5715 1.5429-1.4477-.0762-.2476-.1524-.5142-.2857-.7428-2.1715-3.6572-7.4858-3.0857-7.4858-3.0857z" fill="url(#m)"/><path d="m27.0857 34.0762s-4.3238.4381-7.0286 3.7524c.0191-.1524.0572-.3048.1143-.4571 1.4857-4.0191 6.8-4.5524 6.8-4.5524s5.3143-.5715 7.4857 3.0857c.0762.1333.1524.2857.1905.4381-3.219-2.7238-7.5619-2.2667-7.5619-2.2667z" fill="url(#n)"/><path d="m53.4669 50.4381c-.2476-.0381-.5143.0381-.6857.2095-3.2762 3.0667-8.3238 4.7238-12.1333 4.7238h-.6477-.6476c-3.8095 0-8.8571-1.6571-12.1333-4.7238-.1905-.1714-.4381-.2476-.6857-.2095-.2667.0571-.4.3428-.2667.5714 2.8 4.8381 7.9619 7.8286 13.581 7.8286h.1714.1714c5.6191 0 10.781-2.9905 13.581-7.8286.0952-.2286-.0381-.5143-.3048-.5714z" fill="#643800"/><path d="m53.4669 50.4381c-.2476-.0381-.5143.0381-.6857.2095-3.2762 3.0667-8.3238 4.7238-12.1333 4.7238h-.6477-.6476c-3.8095 0-8.8571-1.6571-12.1333-4.7238-.1905-.1714-.4381-.2476-.6857-.2095-.2667.0571-.4.3428-.2667.5714.0191.0572.0571.0952.0952.1333.2667-.1523.5524-.3047.8381.0191 3.1048 3.4857 7.7143 5.5809 12.6477 5.5809h.1714.1714c4.9715 0 9.6-2.1143 12.7048-5.6571.2857-.3238.5524-.1714.8 0 .019-.0381.0381-.0571.0571-.0952.1143-.2096-.019-.4953-.2857-.5524z" fill="url(#o)"/><path d="m25.2762 28.2096c-3.8857-.2858-8.4381-.6477-9.3333 2.3809s-.3048 7.6 1.7714 11.0095c2.0762 3.4096 10.3048 3.2191 13.2762 1.4096 3.9619-2.4 4.3048-6.4572 4.4191-8.9143.1333-3.2572-4.1524-5.4667-10.1334-5.8857z" fill="url(#q)"/><path d="m54.6476 28.2096c3.8857-.2858 8.4381-.6477 9.3333 2.3809.8953 3.0286.3048 7.6-1.7714 11.0095-2.0762 3.4096-10.3048 3.2191-13.2762 1.4096-3.9619-2.4-4.3048-6.4572-4.419-8.9143-.1334-3.2572 4.1523-5.4667 10.1333-5.8857z" fill="url(#r)"/><path d="m69.2191 27.1239s-.9714-.381-4.3047-.7619c-4.5334-.5143-12-.5334-15.4667.5143-4.819 1.4476-6.5524 3.4666-9.4857 3.4666-2.9334 0-4.6667-2.019-9.5048-3.4857-3.4476-1.0476-10.9143-1.0286-15.4666-.5143-3.3143.381-4.3048.7619-4.3048.7619 0 .3238 0 .7048.019 1.1238 0 0 2.0572.3429 2.0762.5334 0 .0952-2.019.2857-2.019.2857.0381.3428.0952.7047.1714 1.0857l.8.3809c.6286.2858 1.0476.8953 1.1048 1.581.8571 8.3429 3.5047 11.7143 3.5047 11.7143 2.381 3.2 13.581 4.2857 17.3524.0762 4.7238-5.2762 2.8191-10.0381 6.2476-10.0381 3.4286 0 1.5238 4.7809 6.2477 10.0381 3.7714 4.2095 14.9714 3.1238 17.3523-.0762 0 0 2.6477-3.3714 3.5048-11.7143.0762-.6857.4952-1.2952 1.1048-1.581l.8-.3809c.0761-.381.1333-.7429.1714-1.0857 0 0-1.8857-.1905-1.8667-.2857.0191-.1905 1.9429-.5334 1.9429-.5334.0381-.419.0381-.8.019-1.1047zm-38.2285 15.8666c-2.9715 1.8096-11.181 2-13.2762-1.4095-2.0762-3.3905-2.6667-7.9809-1.7715-11.0095.8953-3.0286 5.4477-2.6476 9.3334-2.381 5.9809.4381 10.2666 2.6477 10.1333 5.8857-.1143 2.4572-.4571 6.5143-4.419 8.9143zm31.2-1.4095c-2.0762 3.3905-10.3048 3.2191-13.2762 1.4095-3.9619-2.4-4.3048-6.4571-4.4191-8.9143-.1333-3.238 4.1524-5.4476 10.1333-5.8857 3.8858-.2857 8.4381-.6476 9.3334 2.381.8952 3.0476.3238 7.619-1.7714 11.0095z" fill="url(#s)"/><path d="m25.2762 28.2096c-3.8857-.2858-8.4381-.6477-9.3333 2.3809s-.3048 7.6 1.7714 11.0095c2.0762 3.4096 10.3048 3.2191 13.2762 1.4096 3.9619-2.4 4.3048-6.4572 4.4191-8.9143.1333-3.2572-4.1524-5.4667-10.1334-5.8857z" fill="url(#u)"/><path d="m30.9906 42.9908c-2.9715 1.8095-11.181 2-13.2762-1.4096-1.7524-2.8571-2.4381-6.5524-2.0762-9.4476 0 .0191-.0191.0191-.0191.0381-.3238 3.1238.2477 6.8 1.9619 9.8286 2.1143 3.7333 10.4762 3.5238 13.5048 1.5428 3.1048-2.0381 3.9048-4.9333 4.1524-7.4857-.3048 2.3238-1.2381 5.1048-4.2476 6.9334z" fill="url(#w)"/><path d="m41.8477 33.8475c.0571-.9904.2857-1.9809.6857-2.8761l.6286-1.4286c-1.0477.4762-2.0381.8-3.2.8s-2.1524-.3238-3.2-.8l.6285 1.4286c.4.9142.6286 1.8857.6857 2.8761l.0572.9143c.3809-.5904.9143-.9333 1.8286-.9333s1.4476.3429 1.8285.9333z" fill="url(#x)" opacity=".75"/><path d="m15.943 30.9906c.8953-3.0285 5.4477-2.6476 9.3334-2.3809 5.7714.419 9.9619 2.4762 10.1333 5.5428 0-.019 0-.0571 0-.0762.1333-3.2381-4.1524-5.4476-10.1333-5.8857-3.8857-.2857-8.4381-.6476-9.3334 2.381-.2857.9905-.419 2.1333-.4 3.3524.0191-1.0667.1524-2.0572.4-2.9334z" fill="#000" opacity=".75"/><path d="m10.7048 28.2288c.0191.2476.0381.5334.0762.8191h3.0286c.4571 0 .819-.3619.819-.8191z" fill="url(#z)"/><path d="m54.6476 28.2096c3.8857-.2858 8.4381-.6477 9.3333 2.3809.8953 3.0286.3048 7.6-1.7714 11.0095-2.0762 3.4096-10.3048 3.2191-13.2762 1.4096-3.9619-2.4-4.3048-6.4572-4.419-8.9143-.1334-3.2572 4.1523-5.4667 10.1333-5.8857z" fill="url(#A)"/><path d="m48.9144 42.9908c2.9714 1.8095 11.1809 2 13.2762-1.4096 1.7523-2.8571 2.438-6.5524 2.0761-9.4476 0 .0191.0191.0191.0191.0381.3238 3.1238-.2476 6.8-1.9619 9.8286-2.1143 3.7333-10.4762 3.5238-13.5048 1.5428-3.1047-2.0381-3.9047-4.9333-4.1524-7.4857.3239 2.3238 1.2381 5.1048 4.2477 6.9334z" fill="url(#B)"/><path d="m63.9619 30.9906c-.8953-3.0285-5.4476-2.6476-9.3334-2.3809-5.7714.419-9.9619 2.4762-10.1333 5.5428 0-.019 0-.0571 0-.0762-.1333-3.2381 4.1524-5.4476 10.1333-5.8857 3.8858-.2857 8.4381-.6476 9.3334 2.381.2857.9905.419 2.1333.4 3.3524 0-1.0667-.1334-2.0572-.4-2.9334z" fill="#000" opacity=".75"/><path d="m69.2192 28.2288c-.019.2476-.0381.5334-.0762.8191h-3.0285c-.4572 0-.8191-.3619-.8191-.8191z" fill="url(#C)"/><path d="m54.6478 28.2096c3.8857-.2858 8.4381-.6477 9.3334 2.3809.8952 3.0286.3047 7.6-1.7715 11.0095-2.0762 3.4096-10.3047 3.2191-13.2762 1.4096-3.9619-2.4-4.3047-6.4572-4.419-8.9143-.1333-3.2572 4.1524-5.4667 10.1333-5.8857z" fill="url(#E)" opacity=".5"/><path d="m25.2954 28.8951c-3.7334-.2667-8.0953-.6286-8.9524 2.2857-.8572 2.9143-.2857 7.2953 1.7143 10.5715 2 3.2761 9.8857 3.0857 12.7428 1.3523 3.7905-2.3047 4.1334-6.2095 4.2286-8.5523.1143-3.1239-4.019-5.2381-9.7333-5.6572z" fill="url(#F)" opacity=".5"/><path d="m37.4667 30.9715-.6285-1.4286c-1.6-.7238-3.3905-1.8095-6.3048-2.6857-3.4476-1.0476-10.9143-1.0286-15.4667-.5143-3.3143.381-4.3047.7619-4.3047.7619 0 .3238 0 .7048.019 1.1238 7.0857-.6095 15.6572-2.019 25.7524 2.6286.2667.1333.6095.1714.9524.1524 0-.0191-.0191-.0381-.0191-.0381z" fill="url(#H)"/><path d="m42.6096 30.9715.6286-1.4286c1.6-.7238 3.3905-1.8095 6.3048-2.6857 3.4476-1.0476 10.9142-1.0286 15.4666-.5143 3.3143.381 4.3048.7619 4.3048.7619.019.3238.0381.6857.019 1.1048-7.0857-.6095-15.6571-2.0191-25.7524 2.6286-.2666.1333-.6095.1714-.9523.1523-.0191 0-.0191-.019-.0191-.019z" fill="url(#I)"/></svg>